<svg xmlns="http://www.w3.org/2000/svg" width="900" height="600" viewBox="0 0 30 20"><path fill="#de2910" d="M0 0h30v20H0z"/><path fill="#ffde00" d="m5 2 0.588 1.809h1.902l-1.539 1.118 0.588 1.809L5 5.618 3.461 6.736l0.588-1.809L2.51 3.809h1.902z"/><path fill="#ffde00" d="m9.57 2.05 0.265 0.816h0.858l-0.694 0.504 0.265 0.816-0.694-0.504-0.694 0.504 0.265-0.816-0.694-0.504h0.858z"/><path fill="#ffde00" d="m11.3 3.75 0.265 0.816h0.858l-0.694 0.504 0.265 0.816-0.694-0.504-0.694 0.504 0.265-0.816-0.694-0.504h0.858z"/><path fill="#ffde00" d="m11.3 6.4 0.265 0.816h0.858l-0.694 0.504 0.265 0.816-0.694-0.504-0.694 0.504 0.265-0.816-0.694-0.504h0.858z"/><path fill="#ffde00" d="m9.35 8.1 0.265 0.816h0.858l-0.694 0.504 0.265 0.816-0.694-0.504-0.694 0.504 0.265-0.816-0.694-0.504h0.858z"/></svg>
